<mxfile host="app.diagrams.net" modified="2024-04-17T12:02:52.499Z" agent="Mozilla/5.0 (Windows NT 10.0; Win64; x64) AppleWebKit/537.36 (KHTML, like Gecko) Chrome/123.0.0.0 Safari/537.36 Edg/123.0.0.0" etag="nFCOdvK7g9nmF2EugO2d" version="24.2.5" type="github">
  <diagram name="第 1 页" id="yCbP_b8fFSZPrmZ-ZYuP">
    <mxGraphModel dx="1173" dy="772" grid="1" gridSize="10" guides="1" tooltips="1" connect="1" arrows="1" fold="1" page="1" pageScale="1" pageWidth="827" pageHeight="1169" math="0" shadow="0">
      <root>
        <mxCell id="0" />
        <mxCell id="1" parent="0" />
        <mxCell id="XP7sZToUmPjcMGQkkHXA-1" value="患者" style="shape=umlActor;verticalLabelPosition=bottom;verticalAlign=top;html=1;outlineConnect=0;fontSize=17;" vertex="1" parent="1">
          <mxGeometry x="120" y="240" width="60" height="120" as="geometry" />
        </mxCell>
        <mxCell id="XP7sZToUmPjcMGQkkHXA-5" value="" style="endArrow=classic;html=1;rounded=0;exitX=1;exitY=0.3333333333333333;exitDx=0;exitDy=0;exitPerimeter=0;entryX=0;entryY=0.5;entryDx=0;entryDy=0;" edge="1" parent="1" source="XP7sZToUmPjcMGQkkHXA-1" target="XP7sZToUmPjcMGQkkHXA-4">
          <mxGeometry width="50" height="50" relative="1" as="geometry">
            <mxPoint x="280" y="280" as="sourcePoint" />
            <mxPoint x="330" y="230" as="targetPoint" />
          </mxGeometry>
        </mxCell>
        <mxCell id="XP7sZToUmPjcMGQkkHXA-8" value="" style="endArrow=classic;html=1;rounded=0;entryX=0;entryY=0.5;entryDx=0;entryDy=0;exitX=1;exitY=0.3333333333333333;exitDx=0;exitDy=0;exitPerimeter=0;" edge="1" parent="1" target="XP7sZToUmPjcMGQkkHXA-7" source="XP7sZToUmPjcMGQkkHXA-1">
          <mxGeometry width="50" height="50" relative="1" as="geometry">
            <mxPoint x="280" y="380" as="sourcePoint" />
            <mxPoint x="440" y="340" as="targetPoint" />
          </mxGeometry>
        </mxCell>
        <mxCell id="XP7sZToUmPjcMGQkkHXA-9" value="" style="group" vertex="1" connectable="0" parent="1">
          <mxGeometry x="400" y="90" width="160" height="80" as="geometry" />
        </mxCell>
        <mxCell id="XP7sZToUmPjcMGQkkHXA-4" value="" style="ellipse;whiteSpace=wrap;html=1;" vertex="1" parent="XP7sZToUmPjcMGQkkHXA-9">
          <mxGeometry width="160" height="80" as="geometry" />
        </mxCell>
        <mxCell id="XP7sZToUmPjcMGQkkHXA-6" value="&lt;font style=&quot;font-size: 16px;&quot;&gt;个人中心&lt;/font&gt;" style="text;html=1;align=center;verticalAlign=middle;whiteSpace=wrap;rounded=0;" vertex="1" parent="XP7sZToUmPjcMGQkkHXA-9">
          <mxGeometry x="35" y="25" width="90" height="30" as="geometry" />
        </mxCell>
        <mxCell id="XP7sZToUmPjcMGQkkHXA-11" value="" style="group" vertex="1" connectable="0" parent="1">
          <mxGeometry x="400" y="240" width="160" height="80" as="geometry" />
        </mxCell>
        <mxCell id="XP7sZToUmPjcMGQkkHXA-7" value="" style="ellipse;whiteSpace=wrap;html=1;" vertex="1" parent="XP7sZToUmPjcMGQkkHXA-11">
          <mxGeometry width="160" height="80" as="geometry" />
        </mxCell>
        <mxCell id="XP7sZToUmPjcMGQkkHXA-10" value="&lt;font style=&quot;font-size: 16px;&quot;&gt;置管日记&lt;/font&gt;" style="text;html=1;align=center;verticalAlign=middle;whiteSpace=wrap;rounded=0;" vertex="1" parent="XP7sZToUmPjcMGQkkHXA-11">
          <mxGeometry x="45" y="25" width="70" height="30" as="geometry" />
        </mxCell>
        <mxCell id="XP7sZToUmPjcMGQkkHXA-12" value="" style="endArrow=classic;html=1;rounded=0;entryX=0;entryY=0.5;entryDx=0;entryDy=0;exitX=1;exitY=0.3333333333333333;exitDx=0;exitDy=0;exitPerimeter=0;" edge="1" parent="1" target="XP7sZToUmPjcMGQkkHXA-14" source="XP7sZToUmPjcMGQkkHXA-1">
          <mxGeometry width="50" height="50" relative="1" as="geometry">
            <mxPoint x="220" y="320" as="sourcePoint" />
            <mxPoint x="480" y="530" as="targetPoint" />
          </mxGeometry>
        </mxCell>
        <mxCell id="XP7sZToUmPjcMGQkkHXA-13" value="" style="group" vertex="1" connectable="0" parent="1">
          <mxGeometry x="400" y="390" width="160" height="80" as="geometry" />
        </mxCell>
        <mxCell id="XP7sZToUmPjcMGQkkHXA-14" value="" style="ellipse;whiteSpace=wrap;html=1;" vertex="1" parent="XP7sZToUmPjcMGQkkHXA-13">
          <mxGeometry width="160" height="80" as="geometry" />
        </mxCell>
        <mxCell id="XP7sZToUmPjcMGQkkHXA-15" value="&lt;font style=&quot;font-size: 16px;&quot;&gt;置管日记&lt;/font&gt;" style="text;html=1;align=center;verticalAlign=middle;whiteSpace=wrap;rounded=0;" vertex="1" parent="XP7sZToUmPjcMGQkkHXA-13">
          <mxGeometry x="45" y="25" width="70" height="30" as="geometry" />
        </mxCell>
        <mxCell id="XP7sZToUmPjcMGQkkHXA-16" value="" style="rounded=0;whiteSpace=wrap;html=1;fillColor=none;" vertex="1" parent="1">
          <mxGeometry x="370" y="30" width="210" height="500" as="geometry" />
        </mxCell>
      </root>
    </mxGraphModel>
  </diagram>
</mxfile>
